<svg xmlns="http://www.w3.org/2000/svg" xmlns:xlink="http://www.w3.org/1999/xlink" style="filter: invert(100%);" version="1.1" x="0px" y="0px" viewBox="0 0 32 40" enable-background="new 0 0 32 32" xml:space="preserve"><g><g><path d="M16,4C9.383,4,4,9.383,4,16s5.383,12,12,12s12-5.383,12-12S22.617,4,16,4z M16,26c-5.514,0-10-4.486-10-10S10.486,6,16,6    s10,4.486,10,10S21.514,26,16,26z"/><rect x="11" y="11" width="2" height="2"/><rect x="11" y="15" width="2" height="2"/><rect x="11" y="19" width="2" height="2"/><rect x="15" y="11" width="2" height="2"/><rect x="15" y="15" width="2" height="2"/><rect x="15" y="19" width="2" height="2"/><rect x="19" y="11" width="2" height="2"/><rect x="19" y="15" width="2" height="2"/><rect x="19" y="19" width="2" height="2"/></g></g></svg>